# xmcd CD database file
#
# Track frame offsets:
#	150
#	9352
#	22864
#	32331
#
# Disc length: 461 seconds
#
# Revision: 0
# Processed by: cddbd v1.5.2PL0 Copyright (c) Steve Scherf et al.
# Submitted via: CDex 1.70beta2
#
DISCID=1801cb04
DTITLE=PATOLOGICUM - PROMO 2006
DYEAR=2006
DGENRE=Brutal Death Metal
TTITLE0=HOLOCAUST BUSINESS
TTITLE1=LUGOL'S LIQUID
TTITLE2=LADYBOY INTO DARK ROOM
TTITLE3=UNTITLED
EXTD=YEAR: 2006
EXTT0=
EXTT1=
EXTT2=
EXTT3=
PLAYORDER=
